<svg xmlns="http://www.w3.org/2000/svg" viewBox="0 0 100 125"><path d="M46 7c-3.68 0-6.013 2.32-6 6h-6c-.554 0-1 .446-1 1v10c0 .554.446 1 1 1h32c.554 0 1-.446 1-1V14c0-.554-.446-1-1-1h-6c-.013-3.68-2.32-6-6-6h-8zM26 19c-3.324 0-6 2.676-6 6v62c0 3.324 2.676 6 6 6h48c3.324 0 6-2.676 6-6V25c0-3.324-2.676-6-6-6h-5v5c0 1.627-1.373 3-3 3H34c-1.627 0-3-1.373-3-3v-5h-5zm20 28c.505 0 1.016.203 1.406.594a1.98 1.98 0 0 1 0 2.812L40.812 57H64a2 2 0 0 1 0 4H40.812l6.594 6.594c.781.78.8 2.05 0 2.812-.84.8-2.016.785-2.812 0-3.292-3.302-6.595-6.655-9.906-9.906-.42-.367-.688-.9-.688-1.5 0-.61.289-1.133.719-1.5 3.13-3.316 6.627-6.594 9.875-9.906A1.955 1.955 0 0 1 46 47z" overflow="visible" color="#5cb85c"/></svg>
