<svg height="24" viewBox="0 0 24 24" width="24" xmlns="http://www.w3.org/2000/svg"><path clip-rule="evenodd" d="M24 16.001a.5.5 0 0 1-.503.499h-18a.498.498 0 0 1-.494-.499V14c0-.274.222-.5.494-.5h18c.28 0 .503.226.503.5v2.001zM3 14c0-.274-.223-.5-.503-.5H.503A.501.501 0 0 0 0 14v2.001a.5.5 0 0 0 .503.499h1.994A.5.5 0 0 0 3 16.001V14zm21 6c0-.274-.223-.5-.503-.5h-18a.499.499 0 0 0-.494.5v2.001c0 .274.222.499.494.499h18a.5.5 0 0 0 .503-.499V20zM3 20c0-.274-.223-.5-.503-.5H.503A.501.501 0 0 0 0 20v2.001a.5.5 0 0 0 .503.499h1.994A.5.5 0 0 0 3 22.001V20zM24 8c0-.274-.223-.5-.503-.5h-18a.499.499 0 0 0-.494.5v2.001c0 .274.222.499.494.499h18a.5.5 0 0 0 .503-.499V8zM3 8c0-.274-.223-.5-.503-.5H.503A.501.501 0 0 0 0 8v2.001a.5.5 0 0 0 .503.499h1.994A.5.5 0 0 0 3 10.001V8zm21-6c0-.274-.223-.5-.503-.5h-18a.499.499 0 0 0-.494.5v2.001c0 .274.222.499.494.499h18A.5.5 0 0 0 24 4.001V2zM3 2c0-.274-.223-.5-.503-.5H.503A.501.501 0 0 0 0 2v2.001a.5.5 0 0 0 .503.499h1.994A.5.5 0 0 0 3 4.001V2z" fill-rule="evenodd"/></svg>