<svg height="128" viewBox="0 0 128 128" width="128" xmlns="http://www.w3.org/2000/svg"><path d="M119.78 73.778l-4.563-4.901a.744.744 0 0 0-.001-.149c.098-1.093.163-2.194.206-3.296.01-.318-.003-.658.003-.976a43.133 43.133 0 0 0-.099-3.522 44.086 44.086 0 0 0-.088-1.652l4.576-4.867c2.183-2.325 6.146-5.412 4.933-8.351l-5.01-12.157c-1.213-2.942-6.194-2.325-9.379-2.436l-6.681-.241c-.505-.604-1.049-1.178-1.572-1.761-.02-.022-.044-.056-.069-.087-.186-.195-.343-.407-.531-.599-.283-.308-.609-.602-.901-.902-.423-.426-.844-.859-1.278-1.271-.712-.685-1.463-1.331-2.203-1.972-.03-.031-.078-.057-.104-.078-.04-.039-.076-.083-.116-.123l-.216-6.693c-.098-3.169.525-8.159-2.397-9.375L82.129 3.308c-2.926-1.218-6.034 2.747-8.352 4.91L68.88 12.79a53.39 53.39 0 0 0-3.279-.209c-.305-.012-.612-.006-.938-.004-.703-.006-1.412-.027-2.135.001-.913.029-1.826.086-2.736.165-.117.006-.234.006-.326.014-.065.013-.114.003-.18.016l-4.871-4.586c-2.321-2.171-5.412-6.146-8.351-4.935l-12.157 5.01c-2.942 1.212-2.32 6.205-2.437 9.381l-.237 6.691c-.073.055-.146.131-.214.198a52.638 52.638 0 0 0-2.345 2.07c-.281.276-.552.554-.827.833a45.705 45.705 0 0 0-1.603 1.63c-.266.29-.511.584-.77.88-.352.382-.696.759-1.033 1.162l-6.697.205c-3.169.099-8.159-.524-9.375 2.399l-5.063 12.16c-1.217 2.927 2.742 6.024 4.905 8.342l4.573 4.898c-.074.758-.107 1.512-.149 2.279.001.071-.012.146-.01.217a47.252 47.252 0 0 0-.048 3.892c.021.568.063 1.126.099 1.693.033.458.043.924.086 1.381a.737.737 0 0 0 .005.13l-4.582 4.884c-2.172 2.317-6.15 5.399-4.939 8.337l5.01 12.157c1.213 2.944 6.209 2.331 9.385 2.447l6.687.227c.045.066.099.105.147.173a60.31 60.31 0 0 0 2.132 2.409c.261.281.537.522.802.798.545.553 1.094 1.1 1.662 1.633.279.242.574.495.856.756.395.349.779.705 1.175 1.023l.204 6.696c.1 3.169-.52 8.171 2.404 9.388l12.16 5.062c2.928 1.219 6.023-2.743 8.341-4.906l4.902-4.562c.054.001.106-.006.16-.005.631.07 1.257.094 1.883.126.188.016.37.017.548.036.294.009.576.032.86.042.336.007.671-.003 1.007-.002.817.019 1.635.002 2.445-.035.353-.012.714-.039 1.063-.059.551-.024 1.082-.051 1.624-.083l4.879 4.57c2.324 2.183 5.399 6.151 8.337 4.938l12.158-5.01c2.943-1.214 2.335-6.199 2.447-9.385l.23-6.676a50.188 50.188 0 0 0 1.658-1.462c.075-.087.161-.148.243-.217.186-.176.385-.324.545-.493.324-.287.603-.604.898-.89.422-.427.87-.854 1.299-1.301a49.835 49.835 0 0 0 1.856-2.098 1.21 1.21 0 0 0 .182-.205.961.961 0 0 0 .111-.11l6.691-.215c3.169-.099 8.171.521 9.388-2.403l5.062-12.16c1.223-2.925-2.745-6.032-4.907-8.35zM90.75 64c0 14.773-11.977 26.75-26.75 26.75S37.25 78.773 37.25 64 49.227 37.25 64 37.25 90.75 49.227 90.75 64z" fill="#232323"/></svg>